<svg width="320" height="58" viewBox="0 0 320 58" fill="none" xmlns="http://www.w3.org/2000/svg">
<path d="M199.821 44.0767C199.823 44.0614 199.823 44.0459 199.821 44.0306L194.356 16.2927C194.356 16.273 194.356 16.2532 194.356 16.2334C193.513 11.6793 191.081 7.56134 187.484 4.59555C183.887 1.62976 179.353 0.00367485 174.668 1.45874e-06H145.291C140.594 -0.00178293 136.046 1.63354 132.449 4.61834C128.851 7.60315 126.433 11.7463 125.62 16.3191L120.182 44.0306C120.18 44.0459 120.18 44.0614 120.182 44.0767C119.739 46.5609 120.109 49.1199 121.238 51.3821C122.367 53.6443 124.196 55.4921 126.46 56.657C128.723 57.822 131.303 58.2435 133.826 57.8604C136.348 57.4773 138.682 56.3095 140.487 54.5266L140.604 54.4047L153.837 39.5455H166.173L179.413 54.4047C179.45 54.4475 179.49 54.487 179.53 54.5266C181.779 56.7456 184.826 57.9944 188.005 58C189.757 57.9989 191.487 57.6187 193.075 56.8861C194.662 56.1535 196.068 55.0863 197.194 53.7594C198.32 52.4325 199.138 50.8781 199.591 49.2054C200.045 47.5326 200.122 45.7821 199.818 44.0767H199.821ZM151.996 23.7273H149.329V26.3636C149.329 27.0628 149.048 27.7334 148.548 28.2278C148.047 28.7222 147.369 29 146.662 29C145.954 29 145.276 28.7222 144.776 28.2278C144.275 27.7334 143.994 27.0628 143.994 26.3636V23.7273H141.327C140.62 23.7273 139.941 23.4495 139.441 22.9551C138.941 22.4607 138.66 21.7901 138.66 21.0909C138.66 20.3917 138.941 19.7211 139.441 19.2267C139.941 18.7323 140.62 18.4545 141.327 18.4545H143.994V15.8182C143.994 15.119 144.275 14.4484 144.776 13.954C145.276 13.4596 145.954 13.1818 146.662 13.1818C147.369 13.1818 148.047 13.4596 148.548 13.954C149.048 14.4484 149.329 15.119 149.329 15.8182V18.4545H151.996C152.704 18.4545 153.382 18.7323 153.882 19.2267C154.383 19.7211 154.664 20.3917 154.664 21.0909C154.664 21.7901 154.383 22.4607 153.882 22.9551C153.382 23.4495 152.704 23.7273 151.996 23.7273ZM165.333 21.0909C165.333 20.3917 165.614 19.7211 166.114 19.2267C166.614 18.7323 167.293 18.4545 168 18.4545H176.002C176.709 18.4545 177.388 18.7323 177.888 19.2267C178.388 19.7211 178.669 20.3917 178.669 21.0909C178.669 21.7901 178.388 22.4607 177.888 22.9551C177.388 23.4495 176.709 23.7273 176.002 23.7273H168C167.293 23.7273 166.614 23.4495 166.114 22.9551C165.614 22.4607 165.333 21.7901 165.333 21.0909ZM193.463 49.9163C192.963 50.6272 192.326 51.2331 191.588 51.6987C190.849 52.1642 190.025 52.4803 189.162 52.6284C188.118 52.8088 187.046 52.7419 186.033 52.4331C185.021 52.1243 184.097 51.5825 183.337 50.8522L173.268 39.5455H174.668C178.074 39.5459 181.423 38.6871 184.398 37.0505C187.374 35.4138 189.878 33.0535 191.672 30.193L194.586 45.0225C194.735 45.8711 194.712 46.7404 194.519 47.5803C194.326 48.4202 193.967 49.214 193.463 49.9163Z" fill="white"/>
<g clip-path="url(#clip0_26_150)">
<path d="M269.963 21.3491C271.369 20.2347 273.056 19.5321 274.838 19.3194C274.89 19.3134 274.944 19.3187 274.994 19.3348C275.044 19.351 275.091 19.3777 275.13 19.4131C275.17 19.4485 275.201 19.4919 275.223 19.5404C275.244 19.5889 275.255 19.6414 275.255 19.6944V28.25H272.972C272.786 25.8352 271.705 23.5767 269.942 21.9162C269.902 21.8796 269.871 21.8349 269.851 21.7851C269.83 21.7354 269.82 21.6817 269.822 21.6279C269.824 21.5741 269.838 21.5213 269.862 21.4732C269.886 21.4251 269.92 21.3828 269.963 21.3491ZM268.313 23.0066C267.219 24.4021 266.529 26.0707 266.317 27.8309C266.31 27.8837 266.315 27.9373 266.331 27.988C266.347 28.0387 266.374 28.0854 266.41 28.1251C266.445 28.1647 266.488 28.1963 266.537 28.2179C266.586 28.2394 266.638 28.2504 266.692 28.25H271.465C271.28 26.2268 270.354 24.3433 268.865 22.9616C268.827 22.926 268.781 22.8988 268.732 22.8817C268.683 22.8646 268.631 22.858 268.579 22.8622C268.527 22.8665 268.476 22.8815 268.43 22.9063C268.385 22.9312 268.344 22.9653 268.313 23.0066ZM282.038 21.3491C280.631 20.2347 278.944 19.5321 277.163 19.3194C277.11 19.3134 277.056 19.3187 277.006 19.3348C276.956 19.351 276.909 19.3777 276.87 19.4131C276.83 19.4485 276.799 19.4919 276.777 19.5404C276.756 19.5889 276.745 19.6414 276.745 19.6944V28.25H279.023C279.21 25.8352 280.29 23.5767 282.053 21.9162C282.093 21.8799 282.125 21.8354 282.146 21.7859C282.167 21.7363 282.177 21.6828 282.175 21.629C282.174 21.5752 282.161 21.5223 282.137 21.474C282.113 21.4257 282.079 21.3831 282.038 21.3491ZM285.681 27.8309C285.469 26.0709 284.78 24.4025 283.688 23.0066C283.656 22.9658 283.616 22.932 283.57 22.9074C283.524 22.8829 283.474 22.868 283.423 22.8638C283.371 22.8595 283.319 22.866 283.27 22.8829C283.221 22.8997 283.176 22.9265 283.138 22.9616C281.648 24.3429 280.72 26.2264 280.535 28.25H285.308C285.361 28.2501 285.413 28.2389 285.461 28.2173C285.51 28.1956 285.553 28.164 285.588 28.1244C285.624 28.0848 285.65 28.0381 285.666 27.9875C285.682 27.937 285.687 27.8836 285.681 27.8309ZM266.319 30.1691C266.531 31.929 267.22 33.5975 268.313 34.9934C268.344 35.0342 268.384 35.068 268.43 35.0926C268.476 35.1171 268.526 35.132 268.577 35.1362C268.629 35.1405 268.681 35.134 268.73 35.1171C268.779 35.1003 268.824 35.0735 268.862 35.0384C270.352 33.6571 271.28 31.7736 271.465 29.75H266.693C266.639 29.7499 266.587 29.761 266.539 29.7827C266.49 29.8043 266.447 29.836 266.412 29.8756C266.376 29.9152 266.35 29.9619 266.334 30.0124C266.318 30.063 266.313 30.1164 266.319 30.1691ZM283.688 34.9934C284.781 33.5978 285.471 31.9293 285.683 30.1691C285.69 30.1162 285.685 30.0627 285.669 30.012C285.653 29.9613 285.626 29.9146 285.59 29.8749C285.555 29.8353 285.512 29.8036 285.463 29.7821C285.414 29.7606 285.362 29.7496 285.308 29.75H280.535C280.72 31.7732 281.646 33.6567 283.135 35.0384C283.173 35.074 283.219 35.1011 283.268 35.1182C283.317 35.1353 283.369 35.142 283.421 35.1378C283.473 35.1335 283.524 35.1185 283.57 35.0937C283.615 35.0688 283.656 35.0347 283.688 34.9934ZM269.963 36.6509C271.369 37.7653 273.056 38.4678 274.838 38.6806C274.89 38.6866 274.944 38.6813 274.994 38.6652C275.044 38.649 275.091 38.6223 275.13 38.5869C275.17 38.5515 275.201 38.5081 275.223 38.4596C275.244 38.4111 275.255 38.3586 275.255 38.3056V29.75H272.972C272.786 32.1648 271.705 34.4233 269.942 36.0837C269.902 36.1204 269.871 36.1651 269.851 36.2149C269.83 36.2646 269.82 36.3182 269.822 36.3721C269.824 36.4259 269.838 36.4786 269.862 36.5268C269.886 36.5749 269.92 36.6172 269.963 36.6509ZM279.028 29.75H276.75V38.3075C276.75 38.3605 276.761 38.413 276.782 38.4615C276.803 38.5099 276.835 38.5533 276.874 38.5888C276.914 38.6242 276.96 38.6509 277.011 38.667C277.061 38.6832 277.115 38.6885 277.167 38.6825C278.949 38.4697 280.636 37.7671 282.042 36.6528C282.084 36.6191 282.118 36.5768 282.143 36.5286C282.167 36.4805 282.18 36.4277 282.182 36.3739C282.184 36.3201 282.175 36.2665 282.154 36.2168C282.133 36.167 282.102 36.1223 282.063 36.0856C280.297 34.4254 279.215 32.1661 279.028 29.75Z" fill="url(#paint0_linear_26_150)"/>
</g>
<g clip-path="url(#clip1_26_150)">
<path d="M238.949 39.6837C239.033 39.9354 239.013 40.21 238.894 40.4472C238.776 40.6845 238.568 40.8649 238.316 40.9487C238.065 41.0326 237.79 41.0131 237.553 40.8945C237.316 40.7759 237.135 40.5679 237.051 40.3162L236.051 37.3162C236.01 37.1917 235.993 37.0601 236.002 36.9291C236.012 36.7981 236.047 36.6702 236.106 36.5527C236.164 36.4353 236.246 36.3305 236.345 36.2445C236.444 36.1584 236.559 36.0928 236.684 36.0512C236.808 36.0097 236.94 35.9931 237.071 36.0024C237.202 36.0117 237.33 36.0468 237.447 36.1055C237.565 36.1642 237.669 36.2455 237.756 36.3447C237.842 36.444 237.907 36.5592 237.949 36.6837L238.949 39.6837ZM232 36C231.735 36 231.48 36.1054 231.293 36.2929C231.105 36.4804 231 36.7348 231 37V41C231 41.2652 231.105 41.5196 231.293 41.7071C231.48 41.8946 231.735 42 232 42C232.265 42 232.52 41.8946 232.707 41.7071C232.895 41.5196 233 41.2652 233 41V37C233 36.7348 232.895 36.4804 232.707 36.2929C232.52 36.1054 232.265 36 232 36ZM227.316 36.0512C227.192 36.0097 227.06 35.9931 226.929 36.0024C226.798 36.0117 226.67 36.0467 226.553 36.1055C226.435 36.1642 226.331 36.2455 226.244 36.3447C226.158 36.444 226.093 36.5591 226.051 36.6837L225.051 39.6837C224.967 39.9354 224.987 40.21 225.106 40.4472C225.224 40.6845 225.432 40.8649 225.684 40.9487C225.935 41.0326 226.21 41.0131 226.447 40.8945C226.684 40.7759 226.865 40.5679 226.949 40.3162L227.949 37.3162C227.99 37.1917 228.007 37.0601 227.998 36.9291C227.988 36.7981 227.953 36.6702 227.895 36.5527C227.836 36.4353 227.754 36.3305 227.655 36.2445C227.556 36.1584 227.441 36.0928 227.316 36.0512ZM247 27C247 29.0275 245.329 30.8612 242.294 32.1612C239.528 33.3475 235.875 34 232 34C228.125 34 224.472 33.3475 221.706 32.1612C218.671 30.8612 217 29.0275 217 27C217 25.9537 217.459 24.4012 219.646 22.9375C221.068 21.9862 223.014 21.2175 225.294 20.7062C225.93 19.6989 226.783 18.8472 227.793 18.214C228.802 17.5808 229.94 17.1823 231.124 17.0479C232.307 16.9135 233.506 17.0467 234.631 17.4376C235.756 17.8284 236.78 18.467 237.625 19.3062C238.056 19.733 238.438 20.2068 238.764 20.7187C243.929 21.8862 247 24.2175 247 27ZM238 25C238.002 23.9782 237.741 22.9731 237.243 22.0812L237.235 22.07C236.707 21.1278 235.934 20.3454 234.999 19.8052C234.064 19.2649 233 18.9868 231.92 19C228.656 19.0425 226 21.7812 226 25.1037V25.4787C225.999 25.7034 226.074 25.9218 226.213 26.098C226.352 26.2743 226.547 26.398 226.766 26.4487C228.485 26.8276 230.24 27.0125 232 27C233.759 27.0141 235.513 26.8309 237.231 26.4537C237.45 26.4033 237.646 26.2797 237.786 26.1035C237.925 25.9272 238.001 25.7087 238 25.4837V25Z" fill="url(#paint1_linear_26_150)"/>
</g>
<g clip-path="url(#clip2_26_150)">
<path d="M99 17H91C90.8469 17 90.6958 17.0351 90.5584 17.1028C90.421 17.1704 90.3009 17.2687 90.2075 17.39L82.2075 27.7913L81 26.5863C80.8143 26.4003 80.5937 26.2528 80.3509 26.1521C80.1081 26.0515 79.8478 25.9997 79.585 25.9997C79.3222 25.9997 79.0619 26.0515 78.8191 26.1521C78.5763 26.2528 78.3557 26.4003 78.17 26.5863L77.0838 27.6737C76.898 27.8595 76.7506 28.08 76.6501 28.3227C76.5495 28.5653 76.4978 28.8254 76.4978 29.0881C76.4978 29.3508 76.5495 29.6109 76.6501 29.8536C76.7506 30.0963 76.898 30.3168 77.0838 30.5025L79.8338 33.2525L75.8338 37.2525C75.648 37.4382 75.5006 37.6587 75.4001 37.9014C75.2995 38.1441 75.2478 38.4042 75.2478 38.6669C75.2478 38.9296 75.2995 39.1897 75.4001 39.4323C75.5006 39.675 75.648 39.8955 75.8338 40.0812L76.92 41.1663C77.295 41.541 77.8035 41.7516 78.3338 41.7516C78.864 41.7516 79.3725 41.541 79.7475 41.1663L83.7475 37.1663L86.4975 39.9163C86.6832 40.1022 86.9038 40.2497 87.1466 40.3504C87.3894 40.451 87.6497 40.5028 87.9125 40.5028C88.1753 40.5028 88.4356 40.451 88.6784 40.3504C88.9212 40.2497 89.1418 40.1022 89.3275 39.9163L90.4138 38.8288C90.5995 38.643 90.7469 38.4225 90.8474 38.1798C90.948 37.9372 90.9997 37.6771 90.9997 37.4144C90.9997 37.1517 90.948 36.8916 90.8474 36.6489C90.7469 36.4062 90.5995 36.1857 90.4138 36L89.2088 34.795L99.61 26.795C99.7317 26.7013 99.8302 26.5809 99.8978 26.443C99.9654 26.3052 100 26.1536 100 26V18C100 17.7348 99.8946 17.4804 99.7071 17.2929C99.5196 17.1054 99.2652 17 99 17ZM98 25.5075L87.7825 33.3675L86.415 32L92.7075 25.7075C92.895 25.5199 93.0002 25.2654 93.0001 25.0002C93 24.7349 92.8945 24.4806 92.7069 24.2931C92.5192 24.1057 92.2648 24.0004 91.9996 24.0005C91.7343 24.0006 91.48 24.1061 91.2925 24.2937L85 30.585L83.6338 29.2175L91.4925 19H98V25.5075Z" fill="url(#paint2_linear_26_150)"/>
</g>
<g clip-path="url(#clip3_26_150)">
<path d="M11 30.25C11 30.3983 10.956 30.5433 10.8736 30.6667C10.7912 30.79 10.6741 30.8861 10.537 30.9429C10.4 30.9997 10.2492 31.0145 10.1037 30.9856C9.9582 30.9567 9.82456 30.8852 9.71967 30.7803C9.61478 30.6754 9.54335 30.5418 9.51441 30.3963C9.48547 30.2508 9.50033 30.1 9.55709 29.963C9.61386 29.8259 9.70999 29.7088 9.83332 29.6264C9.95666 29.544 10.1017 29.5 10.25 29.5C10.4489 29.5 10.6397 29.579 10.7803 29.7197C10.921 29.8603 11 30.0511 11 30.25ZM5.75 29.5C5.60166 29.5 5.45666 29.544 5.33332 29.6264C5.20999 29.7088 5.11386 29.8259 5.05709 29.963C5.00032 30.1 4.98547 30.2508 5.01441 30.3963C5.04335 30.5418 5.11478 30.6754 5.21967 30.7803C5.32456 30.8852 5.4582 30.9567 5.60368 30.9856C5.74917 31.0145 5.89997 30.9997 6.03701 30.9429C6.17406 30.8861 6.29119 30.79 6.3736 30.6667C6.45601 30.5433 6.5 30.3983 6.5 30.25C6.5 30.0511 6.42098 29.8603 6.28033 29.7197C6.13968 29.579 5.94891 29.5 5.75 29.5ZM15 25.5V30.5C14.9987 31.6931 14.5241 32.8369 13.6805 33.6805C12.8369 34.5241 11.6931 34.9987 10.5 35H5.5C4.30693 34.9987 3.16311 34.5241 2.31948 33.6805C1.47585 32.8369 1.00132 31.6931 1 30.5L1 25.5C0.999041 25.0125 1.17615 24.5415 1.49805 24.1754C1.81994 23.8093 2.26446 23.5734 2.74805 23.512C3.23164 23.4506 3.72101 23.5679 4.12419 23.8419C4.52737 24.1159 4.81659 24.5278 4.9375 25H11.0625C11.1834 24.5278 11.4726 24.1159 11.8758 23.8419C12.279 23.5679 12.7684 23.4506 13.2519 23.512C13.7355 23.5734 14.1801 23.8093 14.502 24.1754C14.8238 24.5415 15.001 25.0125 15 25.5ZM12.5 30C12.5 29.4696 12.2893 28.9609 11.9142 28.5858C11.5391 28.2107 11.0304 28 10.5 28H5.5C4.96957 28 4.46086 28.2107 4.08579 28.5858C3.71071 28.9609 3.5 29.4696 3.5 30V30.5C3.5 31.0304 3.71071 31.5391 4.08579 31.9142C4.46086 32.2893 4.96957 32.5 5.5 32.5H10.5C11.0304 32.5 11.5391 32.2893 11.9142 31.9142C12.2893 31.5391 12.5 31.0304 12.5 30.5V30Z" fill="url(#paint3_linear_26_150)"/>
</g>
<g clip-path="url(#clip4_26_150)">
<path d="M312 22C308.416 22 305.5 24.8038 305.5 28.25C305.5 30.3813 306.642 32.375 308.5 33.5175V34.5C308.5 34.7652 308.605 35.0196 308.793 35.2071C308.98 35.3946 309.235 35.5 309.5 35.5H310C310.066 35.5 310.13 35.4737 310.177 35.4268C310.224 35.3799 310.25 35.3163 310.25 35.25V33.5169C310.248 33.3878 310.295 33.2629 310.382 33.1673C310.469 33.0716 310.588 33.0123 310.717 33.0013C310.785 32.9967 310.854 33.0063 310.918 33.0294C310.983 33.0525 311.042 33.0886 311.092 33.1354C311.142 33.1823 311.182 33.239 311.209 33.3019C311.236 33.3649 311.25 33.4327 311.25 33.5013V35.2513C311.25 35.3176 311.276 35.3811 311.323 35.428C311.37 35.4749 311.434 35.5013 311.5 35.5013H312.5C312.566 35.5013 312.63 35.4749 312.677 35.428C312.724 35.3811 312.75 35.3176 312.75 35.2513V33.5169C312.748 33.3878 312.795 33.2629 312.882 33.1673C312.969 33.0716 313.088 33.0123 313.217 33.0013C313.285 32.9967 313.354 33.0063 313.418 33.0294C313.483 33.0525 313.542 33.0886 313.592 33.1354C313.642 33.1823 313.682 33.239 313.709 33.3019C313.736 33.3649 313.75 33.4327 313.75 33.5013V35.2513C313.75 35.3176 313.776 35.3811 313.823 35.428C313.87 35.4749 313.934 35.5013 314 35.5013H314.5C314.765 35.5013 315.02 35.3959 315.207 35.2084C315.395 35.0208 315.5 34.7665 315.5 34.5013V33.5175C317.358 32.375 318.5 30.3813 318.5 28.25C318.5 24.8038 315.584 22 312 22ZM309.75 30.5C309.503 30.5 309.261 30.4267 309.056 30.2893C308.85 30.152 308.69 29.9568 308.595 29.7284C308.501 29.4999 308.476 29.2486 308.524 29.0061C308.572 28.7637 308.691 28.5409 308.866 28.3661C309.041 28.1913 309.264 28.0722 309.506 28.024C309.749 27.9758 310 28.0005 310.228 28.0952C310.457 28.1898 310.652 28.35 310.789 28.5555C310.927 28.7611 311 29.0028 311 29.25C311 29.5815 310.868 29.8995 310.634 30.1339C310.399 30.3683 310.082 30.5 309.75 30.5ZM314.25 30.5C314.003 30.5 313.761 30.4267 313.556 30.2893C313.35 30.152 313.19 29.9568 313.095 29.7284C313.001 29.4999 312.976 29.2486 313.024 29.0061C313.072 28.7637 313.191 28.5409 313.366 28.3661C313.541 28.1913 313.764 28.0722 314.006 28.024C314.249 27.9758 314.5 28.0005 314.728 28.0952C314.957 28.1898 315.152 28.35 315.289 28.5555C315.427 28.7611 315.5 29.0028 315.5 29.25C315.5 29.5815 315.368 29.8995 315.134 30.1339C314.899 30.3683 314.582 30.5 314.25 30.5Z" fill="url(#paint4_linear_26_150)"/>
</g>
<g clip-path="url(#clip5_26_150)">
<path d="M44 19.25C42.0716 19.25 40.1866 19.8218 38.5832 20.8932C36.9798 21.9645 35.7301 23.4873 34.9922 25.2688C34.2542 27.0504 34.0611 29.0108 34.4373 30.9021C34.8135 32.7934 35.7421 34.5307 37.1057 35.8943C38.4693 37.2579 40.2066 38.1865 42.0979 38.5627C43.9892 38.9389 45.9496 38.7458 47.7312 38.0078C49.5127 37.2699 51.0355 36.0202 52.1068 34.4168C53.1782 32.8134 53.75 30.9284 53.75 29C53.7473 26.415 52.7192 23.9366 50.8913 22.1087C49.0634 20.2808 46.585 19.2527 44 19.25ZM44.75 22.9419L47.0741 21.3434C48.4047 21.8794 49.5734 22.7516 50.4659 23.8747L49.7159 26.4003C49.6972 26.4003 49.6775 26.4097 49.6587 26.4163L47.5194 27.1109C47.4873 27.1212 47.4559 27.1337 47.4256 27.1484L44.75 25.3081C44.75 25.2894 44.75 25.2697 44.75 25.25V23C44.75 22.9803 44.75 22.9606 44.75 22.9419ZM40.9287 21.3434L43.25 22.9419C43.25 22.9606 43.25 22.9803 43.25 23V25.25C43.25 25.2697 43.25 25.2894 43.25 25.3081L40.5725 27.1522C40.5422 27.1375 40.5108 27.125 40.4787 27.1147L38.3394 26.42C38.3206 26.4134 38.3009 26.4087 38.2822 26.4041L37.5322 23.8784C38.4255 22.7534 39.596 21.8798 40.9287 21.3434ZM39.71 33.4456H37.0531C36.2754 32.2364 35.8295 30.8439 35.7603 29.4078L37.8228 27.8253C37.8406 27.8332 37.8587 27.84 37.8772 27.8459L40.0175 28.5416C40.0461 28.5502 40.0752 28.5571 40.1047 28.5622L41.1162 31.5078C41.1022 31.5247 41.0881 31.5416 41.075 31.5594L39.7531 33.3791C39.7376 33.4005 39.7232 33.4227 39.71 33.4456ZM46.1272 36.9688C44.7334 37.34 43.2666 37.34 41.8728 36.9688L40.9297 34.3063C40.9419 34.2913 40.955 34.2772 40.9662 34.2612L42.2891 32.4406C42.3046 32.4196 42.319 32.3976 42.3322 32.375H45.6678C45.681 32.3976 45.6954 32.4196 45.7109 32.4406L47.0337 34.2612C47.045 34.2772 47.0581 34.2913 47.0703 34.3063L46.1272 36.9688ZM48.29 33.4428C48.2768 33.4199 48.2624 33.3976 48.2469 33.3762L46.9241 31.5594C46.9109 31.5416 46.8969 31.5247 46.8828 31.5078L47.8944 28.5622C47.9238 28.5571 47.9529 28.5502 47.9816 28.5416L50.1219 27.8459C50.1404 27.84 50.1585 27.8332 50.1762 27.8253L52.2387 29.4078C52.1695 30.8439 51.7237 32.2364 50.9459 33.4456L48.29 33.4428Z" fill="url(#paint5_linear_26_150)"/>
</g>
<defs>
<linearGradient id="paint0_linear_26_150" x1="276" y1="19.317" x2="276" y2="38.6849" gradientUnits="userSpaceOnUse">
<stop stop-color="white"/>
<stop offset="1" stop-color="white" stop-opacity="0"/>
</linearGradient>
<linearGradient id="paint1_linear_26_150" x1="232" y1="16.9971" x2="232" y2="42" gradientUnits="userSpaceOnUse">
<stop stop-color="white"/>
<stop offset="1" stop-color="white" stop-opacity="0"/>
</linearGradient>
<linearGradient id="paint2_linear_26_150" x1="87.6239" y1="17" x2="87.6239" y2="41.7516" gradientUnits="userSpaceOnUse">
<stop stop-color="white"/>
<stop offset="1" stop-color="white" stop-opacity="0"/>
</linearGradient>
<linearGradient id="paint3_linear_26_150" x1="8" y1="23.4961" x2="8" y2="35" gradientUnits="userSpaceOnUse">
<stop stop-color="white"/>
<stop offset="1" stop-color="white" stop-opacity="0"/>
</linearGradient>
<linearGradient id="paint4_linear_26_150" x1="312" y1="22" x2="312" y2="35.5013" gradientUnits="userSpaceOnUse">
<stop stop-color="white"/>
<stop offset="1" stop-color="white" stop-opacity="0"/>
</linearGradient>
<linearGradient id="paint5_linear_26_150" x1="44" y1="19.25" x2="44" y2="38.75" gradientUnits="userSpaceOnUse">
<stop stop-color="white"/>
<stop offset="1" stop-color="white" stop-opacity="0"/>
</linearGradient>
<clipPath id="clip0_26_150">
<rect width="24" height="24" fill="white" transform="translate(264 17)"/>
</clipPath>
<clipPath id="clip1_26_150">
<rect width="32" height="32" fill="white" transform="translate(216 13)"/>
</clipPath>
<clipPath id="clip2_26_150">
<rect width="32" height="32" fill="white" transform="translate(72 13)"/>
</clipPath>
<clipPath id="clip3_26_150">
<rect width="16" height="16" fill="white" transform="translate(0 21)"/>
</clipPath>
<clipPath id="clip4_26_150">
<rect width="16" height="16" fill="white" transform="translate(304 21)"/>
</clipPath>
<clipPath id="clip5_26_150">
<rect width="24" height="24" fill="white" transform="translate(32 17)"/>
</clipPath>
</defs>
</svg>
