<svg width="24" height="25" viewBox="0 0 24 25" fill="none" xmlns="http://www.w3.org/2000/svg">
<path d="M22.4728 7.45062L20.0691 16.1019C19.9369 16.5745 19.6542 16.9911 19.2639 17.2885C18.8736 17.5859 18.397 17.7479 17.9062 17.75H8.64C8.14784 17.7498 7.66926 17.5886 7.27725 17.291C6.88523 16.9935 6.6013 16.5758 6.46875 16.1019L3.18 4.25H1.5C1.30109 4.25 1.11032 4.17098 0.96967 4.03033C0.829018 3.88968 0.75 3.69891 0.75 3.5C0.75 3.30109 0.829018 3.11032 0.96967 2.96967C1.11032 2.82902 1.30109 2.75 1.5 2.75H3.75C3.91397 2.74997 4.07343 2.80367 4.20398 2.90289C4.33452 3.00211 4.42895 3.14138 4.47281 3.29938L5.36156 6.5H21.75C21.8656 6.49998 21.9797 6.52669 22.0833 6.57805C22.1869 6.6294 22.2772 6.70401 22.3472 6.79605C22.4171 6.88809 22.4649 6.99506 22.4867 7.10861C22.5085 7.22216 22.5037 7.33922 22.4728 7.45062ZM8.25 19.25C7.95333 19.25 7.66332 19.338 7.41665 19.5028C7.16997 19.6676 6.97771 19.9019 6.86418 20.176C6.75065 20.4501 6.72094 20.7517 6.77882 21.0426C6.8367 21.3336 6.97956 21.6009 7.18934 21.8107C7.39912 22.0204 7.66639 22.1633 7.95736 22.2212C8.24834 22.2791 8.54994 22.2494 8.82403 22.1358C9.09811 22.0223 9.33238 21.83 9.4972 21.5834C9.66203 21.3367 9.75 21.0467 9.75 20.75C9.75 20.3522 9.59196 19.9706 9.31066 19.6893C9.02936 19.408 8.64782 19.25 8.25 19.25ZM18 19.25C17.7033 19.25 17.4133 19.338 17.1666 19.5028C16.92 19.6676 16.7277 19.9019 16.6142 20.176C16.5006 20.4501 16.4709 20.7517 16.5288 21.0426C16.5867 21.3336 16.7296 21.6009 16.9393 21.8107C17.1491 22.0204 17.4164 22.1633 17.7074 22.2212C17.9983 22.2791 18.2999 22.2494 18.574 22.1358C18.8481 22.0223 19.0824 21.83 19.2472 21.5834C19.412 21.3367 19.5 21.0467 19.5 20.75C19.5 20.3522 19.342 19.9706 19.0607 19.6893C18.7794 19.408 18.3978 19.25 18 19.25Z" fill="currentColor"/>
</svg>
