<svg width="25" height="25" viewBox="0 0 25 25" fill="none" xmlns="http://www.w3.org/2000/svg">
<path d="M23.9482 16.7891C23.9486 16.7847 23.9486 16.7803 23.9482 16.7759L22.4116 8.885C22.4116 8.87938 22.4116 8.87375 22.4116 8.86813C22.1744 7.57255 21.4907 6.40107 20.4793 5.55735C19.4679 4.71364 18.1928 4.25105 16.8757 4.25H8.61537C7.29457 4.24949 6.01589 4.71471 5.00421 5.56384C3.99252 6.41297 3.31264 7.59162 3.08412 8.8925L1.55506 16.7759C1.55461 16.7803 1.55461 16.7847 1.55506 16.7891C1.4306 17.4958 1.53463 18.2238 1.85205 18.8673C2.16946 19.5109 2.68374 20.0365 3.32022 20.3679C3.95669 20.6993 4.68223 20.8193 5.3915 20.7103C6.10076 20.6013 6.75682 20.2691 7.26444 19.7619L7.29725 19.7272L11.0182 15.5H14.4869L18.2097 19.7272C18.2201 19.7394 18.2313 19.7506 18.2426 19.7619C18.8752 20.3932 19.732 20.7484 20.6257 20.75C21.1183 20.7497 21.6049 20.6415 22.0513 20.4331C22.4977 20.2247 22.893 19.9211 23.2096 19.5436C23.5261 19.1661 23.7562 18.7239 23.8836 18.2481C24.0111 17.7722 24.0328 17.2742 23.9472 16.7891H23.9482ZM10.5007 11H9.75069V11.75C9.75069 11.9489 9.67167 12.1397 9.53102 12.2803C9.39036 12.421 9.1996 12.5 9.00069 12.5C8.80177 12.5 8.61101 12.421 8.47036 12.2803C8.3297 12.1397 8.25069 11.9489 8.25069 11.75V11H7.50069C7.30177 11 7.11101 10.921 6.97036 10.7803C6.8297 10.6397 6.75069 10.4489 6.75069 10.25C6.75069 10.0511 6.8297 9.86032 6.97036 9.71967C7.11101 9.57902 7.30177 9.5 7.50069 9.5H8.25069V8.75C8.25069 8.55109 8.3297 8.36032 8.47036 8.21967C8.61101 8.07902 8.80177 8 9.00069 8C9.1996 8 9.39036 8.07902 9.53102 8.21967C9.67167 8.36032 9.75069 8.55109 9.75069 8.75V9.5H10.5007C10.6996 9.5 10.8904 9.57902 11.031 9.71967C11.1717 9.86032 11.2507 10.0511 11.2507 10.25C11.2507 10.4489 11.1717 10.6397 11.031 10.7803C10.8904 10.921 10.6996 11 10.5007 11ZM14.2507 10.25C14.2507 10.0511 14.3297 9.86032 14.4704 9.71967C14.611 9.57902 14.8018 9.5 15.0007 9.5H17.2507C17.4496 9.5 17.6404 9.57902 17.781 9.71967C17.9217 9.86032 18.0007 10.0511 18.0007 10.25C18.0007 10.4489 17.9217 10.6397 17.781 10.7803C17.6404 10.921 17.4496 11 17.2507 11H15.0007C14.8018 11 14.611 10.921 14.4704 10.7803C14.3297 10.6397 14.2507 10.4489 14.2507 10.25ZM22.1604 18.4503C22.0199 18.6526 21.8407 18.8249 21.6331 18.9574C21.4255 19.0898 21.1936 19.1797 20.951 19.2219C20.6575 19.2732 20.356 19.2542 20.0713 19.1663C19.7866 19.0785 19.5268 18.9243 19.3132 18.7166L16.4819 15.5H16.8757C17.8332 15.5001 18.7749 15.2558 19.6116 14.7902C20.4483 14.3246 21.1523 13.6531 21.6569 12.8394L22.4763 17.0581C22.518 17.2995 22.5116 17.5468 22.4574 17.7858C22.4032 18.0247 22.3022 18.2505 22.1604 18.4503Z" fill="currentColor"/>
</svg>
