<svg width="25" height="25" viewBox="0 0 25 25" fill="none" xmlns="http://www.w3.org/2000/svg">
<path d="M20 3.5H5C4.60218 3.5 4.22064 3.65804 3.93934 3.93934C3.65804 4.22064 3.5 4.60218 3.5 5V20C3.5 20.3978 3.65804 20.7794 3.93934 21.0607C4.22064 21.342 4.60218 21.5 5 21.5H20C20.3978 21.5 20.7794 21.342 21.0607 21.0607C21.342 20.7794 21.5 20.3978 21.5 20V5C21.5 4.60218 21.342 4.22064 21.0607 3.93934C20.7794 3.65804 20.3978 3.5 20 3.5ZM11.5306 14.5306L8.53063 17.5306C8.46097 17.6004 8.37825 17.6557 8.28721 17.6934C8.19616 17.7312 8.09856 17.7506 8 17.7506C7.90144 17.7506 7.80384 17.7312 7.71279 17.6934C7.62175 17.6557 7.53903 17.6004 7.46937 17.5306L5.96938 16.0306C5.82864 15.8899 5.74958 15.699 5.74958 15.5C5.74958 15.301 5.82864 15.1101 5.96938 14.9694C6.11011 14.8286 6.30098 14.7496 6.5 14.7496C6.69902 14.7496 6.88989 14.8286 7.03063 14.9694L8 15.9397L10.4694 13.4694C10.6101 13.3286 10.801 13.2496 11 13.2496C11.199 13.2496 11.3899 13.3286 11.5306 13.4694C11.6714 13.6101 11.7504 13.801 11.7504 14C11.7504 14.199 11.6714 14.3899 11.5306 14.5306ZM11.5306 8.53063L8.53063 11.5306C8.46097 11.6004 8.37825 11.6557 8.28721 11.6934C8.19616 11.7312 8.09856 11.7506 8 11.7506C7.90144 11.7506 7.80384 11.7312 7.71279 11.6934C7.62175 11.6557 7.53903 11.6004 7.46937 11.5306L5.96938 10.0306C5.89969 9.96094 5.84442 9.87822 5.8067 9.78717C5.76899 9.69613 5.74958 9.59855 5.74958 9.5C5.74958 9.30098 5.82864 9.11011 5.96938 8.96937C6.11011 8.82864 6.30098 8.74958 6.5 8.74958C6.69902 8.74958 6.88989 8.82864 7.03063 8.96937L8 9.93969L10.4694 7.46937C10.6101 7.32864 10.801 7.24958 11 7.24958C11.199 7.24958 11.3899 7.32864 11.5306 7.46937C11.6714 7.61011 11.7504 7.80098 11.7504 8C11.7504 8.19902 11.6714 8.38989 11.5306 8.53063ZM18.5 16.25H14C13.8011 16.25 13.6103 16.171 13.4697 16.0303C13.329 15.8897 13.25 15.6989 13.25 15.5C13.25 15.3011 13.329 15.1103 13.4697 14.9697C13.6103 14.829 13.8011 14.75 14 14.75H18.5C18.6989 14.75 18.8897 14.829 19.0303 14.9697C19.171 15.1103 19.25 15.3011 19.25 15.5C19.25 15.6989 19.171 15.8897 19.0303 16.0303C18.8897 16.171 18.6989 16.25 18.5 16.25ZM18.5 10.25H14C13.8011 10.25 13.6103 10.171 13.4697 10.0303C13.329 9.88968 13.25 9.69891 13.25 9.5C13.25 9.30109 13.329 9.11032 13.4697 8.96967C13.6103 8.82902 13.8011 8.75 14 8.75H18.5C18.6989 8.75 18.8897 8.82902 19.0303 8.96967C19.171 9.11032 19.25 9.30109 19.25 9.5C19.25 9.69891 19.171 9.88968 19.0303 10.0303C18.8897 10.171 18.6989 10.25 18.5 10.25Z" fill="currentColor"/>
</svg>
