<svg width="25" height="25" viewBox="0 0 25 25" fill="none" xmlns="http://www.w3.org/2000/svg">
<path d="M12.25 2.75C10.3216 2.75 8.43657 3.32183 6.83319 4.39317C5.22982 5.46451 3.98013 6.98726 3.24218 8.76884C2.50422 10.5504 2.31114 12.5108 2.68735 14.4021C3.06355 16.2934 3.99215 18.0307 5.35571 19.3943C6.71928 20.7579 8.45656 21.6865 10.3479 22.0627C12.2392 22.4389 14.1996 22.2458 15.9812 21.5078C17.7627 20.7699 19.2855 19.5202 20.3568 17.9168C21.4282 16.3134 22 14.4284 22 12.5C21.9973 9.91498 20.9692 7.43661 19.1413 5.60872C17.3134 3.78084 14.835 2.75273 12.25 2.75ZM15.9166 5.11156C16.21 8.34781 14.7813 9.8225 12.9063 11.1509C12.6953 8.85594 12.115 6.48219 9.30907 4.79281C10.373 4.38627 11.5096 4.20471 12.6472 4.25957C13.7847 4.31443 14.8986 4.60453 15.9184 5.11156H15.9166ZM4.01688 13.0194C6.67375 11.1444 8.66407 11.6431 10.7547 12.6078C8.875 13.9381 7.11157 15.6275 7.04875 18.8994C6.16466 18.1818 5.43883 17.2889 4.91701 16.2769C4.39518 15.2649 4.0887 14.1557 4.01688 13.0194ZM16.8138 19.3691C13.8653 18.005 13.3009 16.0334 13.0909 13.7441C14.2834 14.2934 15.5575 14.7519 16.9628 14.7519C18.025 14.7519 19.1622 14.4894 20.3969 13.8069C20.2147 14.9307 19.8025 16.0049 19.1859 16.962C18.5693 17.9191 17.7618 18.7386 16.8138 19.3691Z" fill="currentColor"/>
</svg>
